<svg xmlns="http://www.w3.org/2000/svg" viewBox="0 0 100 100">
  <!-- Phone -->
  <rect x="40" y="20" width="20" height="35" rx="2" fill="#e2e8f0" stroke="#64748b" stroke-width="1"/>
  <!-- Phone screen -->
  <rect x="42" y="22" width="16" height="20" rx="1" fill="#0ea5e9"/>
  <!-- Charging indicator -->
  <path d="M47 45 L53 45 L47 50 Z" fill="#22c55e"/>
  <!-- Charging symbol -->
  <path d="M48 30 L50 28 L52 33 L48 33 Z" fill="white"/>
  <!-- Cable -->
  <path d="M50 55 Q60 60 65 70" stroke="#64748b" stroke-width="2" fill="none"/>
  <!-- USB Port -->
  <rect x="63" y="68" width="4" height="4" fill="#64748b"/>
  <!-- Power Supply -->
  <rect x="65" y="65" width="20" height="12" rx="2" fill="#1e293b" stroke="#0f172a" stroke-width="1"/>
  <!-- Aishi Capacitors in Power Supply -->
  <rect x="68" y="67" width="6" height="4" fill="#93c5fd" stroke="#3b82f6" stroke-width="0.5"/>
  <rect x="75" y="67" width="6" height="4" fill="#93c5fd" stroke="#3b82f6" stroke-width="0.5"/>
  <rect x="68" y="72" width="6" height="4" fill="#93c5fd" stroke="#3b82f6" stroke-width="0.5"/>
  <rect x="75" y="72" width="6" height="4" fill="#93c5fd" stroke="#3b82f6" stroke-width="0.5"/>
  <!-- Lightning bolt -->
  <path d="M70 50 L74 50 L72 54 L74 62 L70 62 L72 58 L70 58 Z" fill="#f59e0b"/>
  <!-- Fast charging text -->
  <text x="50" y="95" font-size="6" text-anchor="middle" fill="#4b5563" font-family="Arial">Fast Charge</text>
</svg>